<svg xmlns="http://www.w3.org/2000/svg" viewBox="249 89 760 760" role="img" aria-label="SubPilot X"><defs><linearGradient id="g" x1="0" y1="0" x2="1" y2="1"><stop offset="0" stop-color="#7c6cff"/><stop offset="1" stop-color="#4cc9f0"/></linearGradient></defs><rect x="249" y="89" width="760" height="760" fill="url(#g)"/><path d="M0 0 C2 1.1 2 1.1 3 3 C2.9 10.2 -0.8 15.1 -4.6 20.9 C-6 23.1 -7.4 25.2 -8.8 27.4 C-9.5 28.5 -10.2 29.6 -10.9 30.7 C-14.2 35.8 -17.4 40.9 -20.6 46.1 C-21.2 47 -21.8 48 -22.4 49.1 C-27.3 56.9 -32.1 64.8 -36.9 72.7 C-41.1 79.5 -45.3 86.2 -49.5 92.9 C-53.2 98.8 -56.9 104.6 -60.5 110.5 C-66.6 120.4 -72.8 130.2 -79 140 C-90.9 158.8 -102.6 177.6 -114.3 196.4 C-117.8 202 -121.3 207.6 -124.8 213.2 C-129.6 220.8 -134.3 228.4 -139 236 C-144.2 244.4 -149.4 252.8 -154.6 261.1 C-158.2 266.8 -161.8 272.5 -165.3 278.2 C-165.8 279 -166.4 279.9 -166.9 280.8 C-169.9 285.7 -173 290.6 -176 295.5 C-177.3 297.7 -178.7 299.8 -180 302 C-180.6 303 -181.2 304 -181.9 305.1 C-189.3 317.1 -189.3 317.1 -195 319 C-200.8 319.6 -204.2 318.2 -209 315.1 C-210.3 314.2 -211.6 313.4 -213 312.6 C-213.6 312.1 -214.3 311.7 -215 311.3 C-218.1 309.3 -221.3 307.4 -224.5 305.6 C-225.7 304.8 -227 304.1 -228.3 303.3 C-228.9 302.9 -229.6 302.6 -230.2 302.2 C-244.1 293.9 -258 285.6 -271.8 277.2 C-276 274.6 -280.2 272.1 -284.3 269.6 C-285.2 269 -285.2 269 -286.2 268.4 C-287.4 267.7 -288.6 267 -289.8 266.2 C-300.9 259.5 -312 252.8 -323 246 C-321.7 242.1 -319.9 241.2 -316.6 238.7 C-315.4 237.8 -314.2 236.9 -313 236 C-312.3 235.5 -311.7 235 -311 234.5 C-307.4 231.8 -303.9 229 -300.3 226.2 C-298.8 225.1 -297.2 223.8 -295.7 222.7 C-294.9 222.1 -294.1 221.4 -293.4 220.8 C-291 219 -288.7 217.2 -286.3 215.4 C-279.4 210 -272.6 204.7 -265.7 199.2 C-260.9 195.5 -256 191.7 -251.2 188 C-246.5 184.4 -241.9 180.8 -237.2 177.2 C-229.2 170.9 -221.2 164.8 -213.1 158.6 C-210.3 156.5 -207.6 154.4 -204.8 152.3 C-196 145.6 -187.2 138.8 -178.4 132.1 C-174.8 129.3 -171.1 126.5 -167.4 123.7 C-157.7 116.3 -148 109 -138.2 101.7 C-130.5 95.9 -122.8 90 -115.1 84.1 C-108.1 78.5 -100.9 73.3 -93.7 68.1 C-93 67.6 -92.2 67.1 -91.5 66.5 C-90.9 66.1 -90.2 65.7 -89.6 65.2 C-87.9 64 -87.9 64 -86 62 C-86.5 62.3 -87.1 62.6 -87.7 62.9 C-99.6 69.1 -111.5 75.3 -123.5 81.5 C-145 92.6 -166.5 103.8 -187.9 115.2 C-190 116.3 -192.2 117.5 -194.4 118.6 C-195.9 119.4 -197.4 120.2 -198.9 121 C-208.3 126 -217.8 131 -227.2 135.9 C-234.7 139.7 -242.1 143.7 -249.4 147.7 C-259.7 153.4 -270.3 158.8 -280.8 164.2 C-289.6 168.7 -298.4 173.2 -307 178 C-316.4 183.2 -325.9 188.1 -335.5 193 C-347.2 199 -358.8 205.1 -370.3 211.4 C-371.1 211.8 -371.9 212.2 -372.6 212.7 C-374.4 213.6 -376.1 214.7 -377.8 215.7 C-378.7 216.2 -379.7 216.8 -380.7 217.4 C-381.5 217.9 -382.4 218.4 -383.2 219 C-389.5 221.3 -396.6 218.1 -402.8 216.3 C-403.7 216 -404.7 215.7 -405.6 215.4 C-408.6 214.6 -411.6 213.7 -414.6 212.8 C-416.6 212.2 -418.5 211.7 -420.5 211.1 C-423.4 210.2 -426.4 209.4 -429.3 208.5 C-435.8 206.6 -442.3 204.8 -448.9 202.9 C-457.4 200.4 -466 198 -474.6 195.4 C-477.4 194.6 -480.3 193.7 -483.2 192.9 C-484.6 192.5 -486 192.1 -487.4 191.7 C-490.3 190.8 -493.2 189.9 -496.2 189.2 C-497.5 188.8 -497.5 188.8 -498.9 188.4 C-500 188.2 -500 188.2 -501.2 187.9 C-503.6 186.7 -504.1 185.4 -505 183 C-493.8 173.3 -483 165.8 -469.1 160.8 C-468.1 160.4 -467 160 -465.9 159.6 C-454.2 155.3 -442.3 151.1 -430.5 147 C-425.7 145.3 -420.9 143.6 -416.1 142 C-414.9 141.5 -413.7 141.1 -412.5 140.7 C-405 138.1 -397.5 135.4 -390 132.7 C-368.1 125 -346.3 117.3 -324.3 109.7 C-322.4 109.1 -320.5 108.4 -318.6 107.8 C-307.4 103.9 -296.1 100 -284.8 96.3 C-284.2 96.1 -283.5 95.8 -282.8 95.6 C-279.6 94.5 -276.3 93.5 -273.1 92.4 C-267 90.4 -261 88.3 -255.1 85.9 C-251.6 84.5 -248.1 83.2 -244.6 81.9 C-243.8 81.7 -243.1 81.4 -242.3 81.2 C-237.4 79.4 -232.5 78 -227.5 76.7 C-224.1 75.7 -220.9 74.4 -217.7 73 C-213.5 71.4 -209.2 70.2 -205 68.9 C-201.9 68 -201.9 68 -198.5 66.5 C-194.2 64.7 -189.8 63.4 -185.3 62.1 C-182.4 61.1 -179.8 60 -177 58.8 C-171.9 56.8 -166.6 55.3 -161.4 53.7 C-155.9 52 -150.7 50.1 -145.4 48 C-141.5 46.4 -137.5 45.2 -133.5 44 C-127.6 42.2 -121.9 40.3 -116.2 37.9 C-113.1 36.6 -109.9 35.8 -106.6 34.8 C-104.1 34 -101.7 33.1 -99.3 32.1 C-94.4 30.1 -89.6 28.4 -84.6 26.8 C-83.8 26.4 -82.9 26.2 -82 25.9 C-80.1 25.2 -78.3 24.6 -76.4 24 C-73.5 23 -70.6 22 -67.7 21 C-63.7 19.7 -59.8 18.3 -55.8 17 C-48 14.3 -40.2 11.7 -32.5 9 C-30.3 8.3 -28.1 7.5 -25.9 6.8 C-18.1 4.1 -18.1 4.1 -10.3 1.2 C-6.6 -0.1 -3.9 -0.5 0 0 Z" fill="#ffffff" fill-opacity="1.00" transform="translate(971,283)"/><path d="M0 0 C0.7 0.2 1.4 0.3 2.1 0.5 C27.6 7 51 19.3 72 35 C72.9 35.7 73.9 36.4 74.8 37.1 C93.3 51.4 110.9 70.3 122 91 C122 91.7 122 92.3 122 93 C109.6 97.7 97.1 102.1 84.5 106.2 C82.1 107 79.8 107.8 77.4 108.5 C61.6 113.9 61.6 113.9 57 112 C54.1 109.5 51.5 106.9 48.9 104.1 C31.3 85.1 3.8 72.2 -21 66 C-22.2 65.7 -23.4 65.4 -24.6 65.1 C-47.2 59.6 -75.4 59.3 -98 65 C-98.8 65.2 -99.6 65.4 -100.4 65.6 C-130.2 73.3 -154.2 88.7 -177 109 C-177.7 109.6 -178.5 110.3 -179.2 111 C-202.7 133 -216.3 163.9 -226 194 C-227 194 -227 194 -228.1 194.1 C-264.9 196.1 -296.4 211 -321.3 238.1 C-325.9 243.3 -329.5 249 -333 255 C-333.4 255.7 -333.9 256.5 -334.3 257.2 C-340 267.1 -344.7 276.9 -347.5 288 C-348 290 -348.6 292 -349.2 293.9 C-352.7 306.7 -352.3 319.5 -351.9 332.6 C-351.8 333.4 -351.8 334.2 -351.8 335 C-351.8 336.4 -351.7 337.9 -351.6 339.3 C-351.6 344.4 -352.9 347.1 -356 351 C-358.4 353.2 -358.4 353.2 -361.1 355.2 C-366.2 359.3 -371 363.6 -375.7 368.1 C-378 370 -378 370 -381 370 C-381.2 370.6 -381.5 371.1 -381.7 371.7 C-383.3 374.5 -385.1 376.5 -387.3 378.8 C-388.1 379.6 -388.8 380.4 -389.6 381.2 C-392.4 383.3 -393.6 383.4 -397 383 C-404.1 369.8 -407.7 355.5 -411 341 C-411.2 340.3 -411.3 339.7 -411.5 339 C-412.8 333.7 -413.3 328.8 -413.3 323.4 C-413.3 322.6 -413.4 321.8 -413.4 321 C-413.4 318.4 -413.4 315.9 -413.4 313.3 C-413.4 312.4 -413.4 311.6 -413.4 310.7 C-413.3 297.1 -412.5 284.2 -409 271 C-408.8 270.3 -408.6 269.6 -408.5 268.8 C-402.4 244.2 -390.3 221 -375 201 C-374.3 200.1 -373.6 199.1 -372.9 198.2 C-362.8 185.5 -351.1 174.5 -338 165 C-337.4 164.6 -336.9 164.2 -336.3 163.8 C-320.6 152.4 -301.1 140.3 -281.7 137.3 C-273.7 135.9 -273.7 135.9 -267.4 131.1 C-264.4 126.2 -262.3 120.9 -260.1 115.6 C-258.4 111.7 -256.3 108.2 -254 104.6 C-253.6 104 -253.2 103.3 -252.7 102.7 C-251.5 100.8 -250.3 98.9 -249 97 C-248.4 96.1 -248.4 96.1 -247.8 95.2 C-233.4 73.7 -214.9 54.2 -194 39 C-192.8 38.1 -191.7 37.3 -190.6 36.4 C-163.3 16.4 -131.6 2.1 -98.2 -3.6 C-96 -4 -93.8 -4.4 -91.6 -4.9 C-61.7 -10.7 -29.3 -7.5 0 0 Z" fill="#ffffff" fill-opacity="1.00" transform="translate(685,223)"/><path d="M0 0 C0.7 0.3 1.3 0.7 2 1 C-18.1 16.1 -18.1 16.1 -20 17.5 C-21.4 18.5 -22.7 19.5 -24 20.5 C-27.3 23 -30.6 25.5 -33.9 27.9 C-41 33.2 -47.9 38.5 -54.8 43.9 C-61.7 49.3 -68.8 54.5 -75.9 59.8 C-82.2 64.3 -88.3 69.1 -94.4 73.9 C-99.2 77.7 -104.1 81.3 -109 85 C-115.5 89.8 -121.9 94.8 -128.2 99.7 C-133.3 103.7 -138.4 107.6 -143.5 111.5 C-150.2 116.6 -156.9 121.8 -163.5 127 C-167.9 130.4 -172.3 133.8 -176.8 137.2 C-181.7 141 -186.6 144.8 -191.4 148.6 C-196.2 152.4 -201 156.1 -205.8 159.8 C-206.5 160.4 -207.2 161 -208 161.6 C-212 164.7 -216 167.8 -220 170.9 C-221.2 171.8 -221.2 171.8 -222.5 172.8 C-224 174 -225.6 175.2 -227.2 176.4 C-230.7 179.1 -234 181.8 -237 185 C-236.3 185.3 -235.6 185.5 -234.9 185.8 C-231.8 187.1 -229.1 188.7 -226.2 190.4 C-225.6 190.8 -225.1 191.1 -224.5 191.4 C-222.7 192.5 -220.9 193.7 -219.1 194.8 C-217.9 195.5 -216.6 196.3 -215.4 197 C-212.8 198.6 -210.3 200.1 -207.8 201.7 C-202.1 205.2 -196.4 208.6 -190.8 212.1 C-187.5 214 -184.2 216 -181 218 C-188.9 228.5 -196.8 238.9 -205.7 248.6 C-207.7 250.7 -209.5 252.8 -211.4 254.9 C-219.5 264.2 -228.3 272.4 -238 280 C-239.5 281.2 -239.5 281.2 -240.9 282.4 C-249.9 289.4 -259.4 295.8 -269 302 C-269.8 302.5 -270.6 303 -271.4 303.6 C-286.1 313.1 -301.4 321.2 -317 329 C-318 329.5 -319 330 -320 330.5 C-351.1 346 -384.1 358.9 -417.8 367.4 C-420.9 368.2 -424.1 369.2 -427.2 370.1 C-434.8 372.3 -442.6 373.9 -450.4 375.4 C-453.4 376.1 -456.3 376.8 -459.2 377.5 C-466 379.1 -472.8 380 -479.8 380.7 C-481 380.8 -482.3 380.9 -483.6 381.1 C-493.6 382 -503.7 382.3 -513.8 382.2 C-514.8 382.2 -514.8 382.2 -515.9 382.2 C-537.8 382.2 -537.8 382.2 -540 380 C-541.8 379.8 -543.6 379.5 -545.4 379.3 C-564 376.5 -582.1 368.9 -593.9 353.6 C-601 342.4 -603.1 329 -600.6 316 C-594.8 291.8 -575.1 269.2 -556 254 C-555 253.2 -554 252.4 -553 251.6 C-520.4 225.3 -483 204.2 -444 189 C-442.9 188.6 -441.9 188.2 -440.8 187.7 C-431.9 184.3 -423 181.1 -414 178 C-413.3 177.8 -412.6 177.5 -411.8 177.2 C-402.8 174.1 -393.7 171.2 -384.6 168.6 C-383.7 168.3 -382.8 168 -381.8 167.7 C-381 167.5 -380.1 167.2 -379.2 167 C-378.5 166.8 -377.8 166.6 -377 166.3 C-375 166 -375 166 -372 167 C-372.5 167.3 -373.1 167.6 -373.6 167.9 C-395.7 179.8 -417.6 191.9 -439 205 C-439.8 205.5 -440.6 206 -441.5 206.5 C-451.7 212.8 -461.7 219.4 -471.3 226.7 C-473 228 -474.7 229.3 -476.5 230.6 C-482.5 235.1 -488.2 239.8 -493.7 244.9 C-495.8 246.8 -497.9 248.6 -500.1 250.4 C-513.1 261.9 -528.5 280.6 -530.2 298.6 C-530.6 306.9 -528.5 314.3 -522.7 320.6 C-511.1 330.1 -496.1 331.5 -481.7 331.4 C-481 331.4 -480.3 331.4 -479.6 331.4 C-463.8 331.3 -448.4 329.6 -433 326 C-431.1 325.6 -429.2 325.2 -427.3 324.7 C-384.2 315.1 -341.2 300.8 -301.1 282.3 C-296.2 280 -296.2 280 -294 280 C-294.1 279 -294.1 278 -294.2 276.9 C-296 252.8 -297.6 228.6 -299 204.4 C-299.1 203.4 -299.1 202.4 -299.2 201.3 C-299.3 199.4 -299.4 197.5 -299.5 195.6 C-299.8 190.7 -300.2 185.8 -300.8 181 C-301.2 176.9 -301.4 172.8 -301.6 168.8 C-301.6 167.9 -301.7 167 -301.8 166.1 C-301.9 160 -301.9 160 -299.6 157.5 C-297.5 156.1 -295.3 155.1 -293 154 C-291.2 153 -289.4 152.1 -287.5 151.1 C-285.5 150 -283.4 149 -281.4 147.9 C-273.4 143.8 -265.5 139.7 -257.6 135.3 C-247.9 130 -238.1 124.9 -228.3 119.9 C-227.6 119.5 -226.8 119.1 -226 118.7 C-223 117.1 -220 115.6 -217 114.1 C-205.3 108.1 -193.7 101.9 -182.1 95.7 C-180.9 95 -179.7 94.4 -178.5 93.8 C-177.9 93.4 -177.3 93.1 -176.7 92.8 C-164.5 86.2 -152.3 79.9 -140 73.5 C-130.6 68.7 -121.2 63.7 -111.8 58.7 C-97.1 50.7 -82.3 43 -67.4 35.4 C-65.9 34.6 -64.4 33.8 -63 33.1 C-62.2 32.7 -61.5 32.4 -60.8 32 C-54.9 28.9 -49 25.8 -43 22.7 C-38.3 20.2 -33.5 17.7 -28.7 15.2 C-28 14.9 -27.4 14.5 -26.7 14.2 C-23.4 12.5 -20.2 10.8 -17 9.2 C-15.8 8.6 -14.6 7.9 -13.4 7.3 C-11.7 6.5 -11.7 6.5 -10 5.6 C-7.5 4.3 -5.1 2.9 -2.8 1.5 C-1.9 1 -0.9 0.5 0 0 Z" fill="#ffffff" fill-opacity="1.00" transform="translate(885,344)"/><path d="M0 0 C22.9 10.8 37.6 40.6 46.5 62.7 C57.7 93.8 59.2 127.9 52 160 C51.8 160.8 51.7 161.6 51.5 162.4 C43.8 196.5 24.9 226 1 251 C0.5 251.6 -0.1 252.1 -0.6 252.7 C-24.3 277 -59.1 293.4 -92 300 C-92.9 300.2 -93.8 300.4 -94.7 300.5 C-107.1 302.6 -119.5 302.3 -132 302.3 C-134.7 302.3 -137.3 302.3 -139.9 302.3 C-146.3 302.3 -152.7 302.3 -159 302.3 C-164.2 302.3 -169.4 302.3 -174.6 302.3 C-175.7 302.3 -175.7 302.3 -176.8 302.3 C-178.3 302.3 -179.9 302.3 -181.4 302.3 C-195.5 302.3 -209.6 302.3 -223.7 302.3 C-235.7 302.2 -247.8 302.2 -259.8 302.3 C-273.9 302.3 -287.9 302.3 -301.9 302.3 C-303.5 302.3 -305 302.3 -306.5 302.3 C-307.6 302.3 -307.6 302.3 -308.7 302.3 C-313.9 302.3 -319 302.3 -324.2 302.3 C-330.5 302.3 -336.8 302.3 -343.2 302.3 C-346.4 302.3 -349.6 302.3 -352.8 302.3 C-367.7 302.3 -382.2 301.7 -397 300 C-394.6 297.5 -392.7 296.3 -389.5 295 C-388.1 294.5 -388.1 294.5 -386.7 293.9 C-385.7 293.5 -384.7 293.1 -383.6 292.7 C-358.3 282.4 -334.4 269.8 -310.9 255.8 C-310.3 255.4 -309.7 255.1 -309.1 254.7 C-306.2 252.9 -303.2 251.2 -300.3 249.4 C-291.4 244 -282.4 238.9 -271.8 238.9 C-270.5 238.8 -269.2 238.8 -267.8 238.8 C-266.4 238.8 -264.9 238.8 -263.5 238.8 C-261.9 238.8 -260.4 238.8 -258.9 238.8 C-255.6 238.8 -252.3 238.8 -249 238.8 C-243.8 238.8 -238.6 238.7 -233.4 238.7 C-218.6 238.6 -203.8 238.6 -189 238.5 C-180.8 238.5 -172.6 238.5 -164.4 238.4 C-159.3 238.4 -154.1 238.4 -148.9 238.4 C-145.7 238.3 -142.5 238.3 -139.2 238.3 C-137.8 238.3 -136.3 238.3 -134.8 238.3 C-102 238.3 -70.6 228.1 -46 206 C-44.8 204.9 -44.8 204.9 -43.5 203.7 C-27.4 188.4 -17.3 169.2 -11 148 C-10.8 147.4 -10.6 146.7 -10.4 146.1 C-8.3 138.3 -8.6 130.2 -8.6 122.1 C-8.6 121.3 -8.6 120.6 -8.6 119.8 C-8.6 107.5 -9.6 96.5 -14 85 C-14.5 83.7 -14.5 83.7 -14.9 82.4 C-15.8 80.1 -16.9 78.1 -18 76 C-18.9 74.3 -18.9 74.3 -19.8 72.6 C-23.1 66.6 -26.5 60.9 -31.1 55.6 C-32 54 -32 54 -31.7 52.1 C-31 49.9 -30 48.1 -28.8 46 C-28.3 45.2 -27.8 44.5 -27.4 43.6 C-26.9 42.8 -26.3 42 -25.8 41.1 C-25.3 40.2 -24.8 39.4 -24.2 38.5 C-18.5 29 -12.5 19.7 -6.5 10.4 C-4.3 7 -2.2 3.5 0 0 Z" fill="#ffffff" fill-opacity="1.00" transform="translate(927,414)"/><path d="M0 0 C0.7 0.3 1.3 0.7 2 1 C-18.1 16.1 -18.1 16.1 -20 17.5 C-21.4 18.5 -22.7 19.5 -24 20.5 C-27.3 23 -30.6 25.5 -33.9 27.9 C-41 33.2 -47.9 38.5 -54.8 43.9 C-61.7 49.3 -68.8 54.5 -75.9 59.8 C-82.2 64.3 -88.3 69.1 -94.4 73.9 C-99.2 77.7 -104.1 81.3 -109 85 C-115.5 89.8 -121.9 94.8 -128.2 99.7 C-133.3 103.7 -138.4 107.6 -143.5 111.5 C-150.2 116.6 -156.9 121.8 -163.5 127 C-167.9 130.4 -172.3 133.8 -176.8 137.2 C-181.7 141 -186.6 144.8 -191.4 148.6 C-196.2 152.4 -201 156.1 -205.8 159.8 C-206.5 160.4 -207.2 161 -208 161.6 C-212 164.7 -216 167.8 -220 170.9 C-220.8 171.5 -221.6 172.1 -222.5 172.8 C-224 174 -225.6 175.2 -227.2 176.4 C-230.7 179.1 -234 181.8 -237 185 C-236.3 185.3 -235.6 185.5 -234.9 185.8 C-231.8 187.1 -229.1 188.7 -226.2 190.4 C-225.6 190.8 -225.1 191.1 -224.5 191.4 C-222.7 192.5 -220.9 193.7 -219.1 194.8 C-217.9 195.5 -216.6 196.3 -215.4 197 C-212.8 198.6 -210.3 200.1 -207.8 201.7 C-202.1 205.2 -196.4 208.6 -190.8 212.1 C-187.5 214 -184.2 216 -181 218 C-188.9 228.5 -196.8 238.9 -205.7 248.6 C-207.7 250.7 -209.5 252.8 -211.4 254.9 C-219.5 264.2 -228.3 272.4 -238 280 C-239 280.8 -239.9 281.6 -240.9 282.4 C-249.9 289.4 -259.4 295.8 -269 302 C-269.8 302.5 -270.7 303.1 -271.5 303.6 C-306.4 326 -306.4 326 -313 326 C-311.7 323 -310.2 321.1 -307.8 318.9 C-297.1 308.4 -295.3 295.4 -294 281 C-294.7 280.7 -295.3 280.3 -296 280 C-295.3 280 -294.7 280 -294 280 C-294.1 279 -294.1 278 -294.2 276.9 C-296 252.8 -297.6 228.6 -299 204.4 C-299.1 203.4 -299.1 202.4 -299.2 201.3 C-299.3 199.4 -299.4 197.5 -299.5 195.6 C-299.8 190.7 -300.2 185.8 -300.8 181 C-301.2 176.9 -301.4 172.8 -301.6 168.8 C-301.6 167.9 -301.7 167 -301.8 166.1 C-301.9 160 -301.9 160 -299.6 157.5 C-297.5 156.1 -295.3 155.1 -293 154 C-291.2 153 -289.4 152.1 -287.5 151.1 C-285.5 150 -283.4 149 -281.4 147.9 C-273.4 143.8 -265.5 139.7 -257.6 135.3 C-247.9 130 -238.1 124.9 -228.3 119.9 C-227.2 119.3 -227.2 119.3 -226 118.7 C-223 117.1 -220 115.6 -217 114.1 C-205.3 108.1 -193.7 101.9 -182.1 95.7 C-180.9 95 -179.7 94.4 -178.5 93.8 C-177.9 93.4 -177.3 93.1 -176.7 92.8 C-164.5 86.2 -152.3 79.9 -140 73.5 C-130.6 68.7 -121.2 63.7 -111.8 58.7 C-97.1 50.7 -82.3 43 -67.4 35.4 C-65.9 34.6 -64.4 33.8 -63 33.1 C-61.9 32.5 -61.9 32.5 -60.8 32 C-54.9 28.9 -49 25.8 -43 22.7 C-38.3 20.2 -33.5 17.7 -28.7 15.2 C-28 14.9 -27.4 14.5 -26.7 14.2 C-23.4 12.5 -20.2 10.8 -17 9.2 C-15.8 8.6 -14.6 7.9 -13.4 7.3 C-11.7 6.5 -11.7 6.5 -10 5.6 C-7.5 4.3 -5.1 2.9 -2.8 1.5 C-1.9 1 -0.9 0.5 0 0 Z" fill="#ffffff" fill-opacity="1.00" transform="translate(885,344)"/><path d="M0 0 C4.3 0.8 7.7 3 11.3 5.2 C12 5.6 12.8 6.1 13.5 6.5 C28.1 15.2 42.6 24.1 57 33 C49.2 43.6 41.2 53.9 32.3 63.6 C30.3 65.7 28.5 67.8 26.6 69.9 C18.5 79.2 9.7 87.4 0 95 C-1 95.8 -1.9 96.5 -3 97.4 C-22.9 113.1 -45 127.2 -68 138 C-66.6 133.8 -63.4 131.3 -60.2 128.3 C-53 121.1 -49.7 112.2 -46 103 C-45.3 103 -44.7 103 -44 103 C-43.7 101.8 -43.5 100.6 -43.2 99.3 C-42.4 95.7 -40.9 93.2 -39 90 C-37.8 87 -36.7 84 -35.6 80.9 C-33.9 76.5 -31.8 72.2 -29.8 67.8 C-26.3 60.3 -23 52.8 -19.8 45.2 C-19.2 43.9 -19.2 43.9 -18.6 42.6 C-13.6 31 -8.6 19.4 -3.8 7.6 C-3.4 6.8 -3.1 5.9 -2.7 5 C-2.4 4.2 -2.1 3.5 -1.8 2.7 C-1 1 -1 1 0 0 Z" fill="#ffffff" fill-opacity="0.72" transform="translate(647,529)"/><path d="M0 0 C-2.3 2.5 -4.2 3.7 -7.4 4.8 C-8.3 5.1 -9.1 5.4 -10 5.8 C-10.9 6.1 -11.9 6.4 -12.8 6.8 C-20.4 9.5 -27.6 12.6 -34.7 16.4 C-37.4 17.7 -40 18.8 -42.7 19.8 C-48.3 22 -53.5 24.8 -58.8 27.8 C-60.2 28.6 -60.2 28.6 -61.7 29.4 C-64.5 30.9 -67.2 32.5 -70 34 C-70.7 34.4 -71.4 34.8 -72.1 35.2 C-76.1 37.4 -80.1 39.7 -84 42 C-84.6 42.4 -85.2 42.7 -85.8 43.1 C-105.7 54.6 -124.5 68 -141 84 C-141.8 84.8 -141.8 84.8 -142.6 85.6 C-152.2 94.7 -160 104.2 -166.6 115.7 C-168 118 -168 118 -169.4 120 C-173.2 125.4 -174.2 130.6 -175 137 C-176 137 -177 137 -178 137 C-178 135.3 -178 133.7 -178 132 C-177.3 132 -176.7 132 -176 132 C-176.2 131.2 -176.4 130.3 -176.6 129.5 C-178 117 -168.2 105.7 -160.9 96.4 C-153.4 87.3 -145.2 78.4 -136 71 C-135 70.2 -134 69.4 -133 68.6 C-100.4 42.3 -63 21.2 -24 6 C-22.8 5.5 -21.6 5.1 -20.4 4.6 C-4.3 -1.7 -4.3 -1.7 0 0 Z" fill="#ffffff" fill-opacity="1.00" transform="translate(465,527)"/><path d="M0 0 C1 0.3 2 0.7 3 1 C-5.9 10.3 -15.8 18.1 -26 26 C-26.7 26.5 -27.3 27 -28 27.6 C-36.9 34.5 -45.9 41.2 -55 48 C-63 53.9 -70.9 60 -78.7 66.1 C-82.2 68.8 -85.7 71.5 -89.2 74.2 C-92.2 76.4 -95.2 78.8 -98.1 81.2 C-107.3 88.7 -116.7 96 -126.1 103.2 C-133.4 108.8 -140.7 114.4 -147.8 120.3 C-149.9 122 -151.3 122.6 -154 123 C-154 121.7 -154 120.4 -154 119 C-151.8 116.9 -149.7 115.2 -147.3 113.4 C-146.3 112.6 -146.3 112.6 -145.2 111.8 C-143.2 110.2 -141.1 108.6 -139 107 C-137.9 106.2 -136.8 105.3 -135.7 104.5 C-133.7 102.9 -131.6 101.3 -129.5 99.7 C-125.3 96.5 -121.2 93.3 -117.1 90.1 C-116.3 89.5 -115.5 88.9 -114.7 88.2 C-110 84.6 -105.4 80.9 -100.7 77.2 C-95.9 73.5 -91 69.7 -86.2 66 C-81.5 62.4 -76.9 58.8 -72.2 55.2 C-64.2 48.9 -56.2 42.8 -48.1 36.6 C-45.3 34.5 -42.6 32.4 -39.8 30.3 C-32.5 24.7 -25.2 19.1 -17.9 13.6 C-16.6 12.6 -16.6 12.6 -15.3 11.6 C-13.7 10.3 -12 9 -10.3 7.8 C-8.8 6.6 -7.2 5.4 -5.7 4.2 C-5 3.6 -4.3 3 -3.6 2.5 C-3 2 -2.3 1.5 -1.7 0.9 C-1.1 0.6 -0.6 0.3 0 0 Z" fill="#ffffff" fill-opacity="1.00" transform="translate(806,405)"/><path d="M0 0 C0 0.7 0 1.3 0 2 C-69.4 19.1 -69.4 19.1 -93 8 C-93 7.7 -93 7.3 -93 7 C-91.4 7 -91.4 7 -89.7 7 C-65 7.4 -41 7.5 -17.1 0.9 C-11.5 -0.5 -5.5 -1.8 0 0 Z" fill="#ffffff" fill-opacity="1.00" transform="translate(473,668)"/><path d="M0 0 C18.3 8.7 32.1 31.5 40.6 49.1 C41.1 50.1 41.1 50.1 41.6 51.2 C43.3 54.9 44.4 57.9 44 62 C41.6 59 40.2 56.2 38.8 52.6 C33.5 39.6 25.8 26.7 15.7 16.8 C14 15 14 15 14 13 C13 12.7 12 12.3 11 12 C9.7 10.3 8.3 8.7 7 7 C4.9 5.2 4.9 5.2 3 4 C-0.3 6.2 -1.1 7.6 -3 11 C-3.8 12.1 -4.6 13.2 -5.4 14.2 C-7.8 17.5 -9.7 21 -11.6 24.5 C-13.7 28.3 -16 31.8 -18.4 35.4 C-19.5 37.1 -20.5 38.9 -21.6 40.7 C-23 43 -23 43 -25.1 45.4 C-27.2 48.2 -28.1 50.7 -29 54 C-28.3 54 -27.7 54 -27 54 C-26.3 56 -25.7 58 -25 60 C-28.3 58.6 -30.2 57.2 -32 54 C-31.5 50.9 -30.4 48.6 -28.8 46 C-28.3 45.2 -27.8 44.5 -27.4 43.6 C-26.9 42.8 -26.3 42 -25.8 41.1 C-25.3 40.2 -24.8 39.4 -24.2 38.5 C-18.5 29 -12.5 19.7 -6.5 10.4 C-4.3 7 -2.2 3.5 0 0 Z" fill="#ffffff" fill-opacity="1.00" transform="translate(927,414)"/><path d="M0 0 C-3.5 4.2 -7.7 6 -12.6 8.1 C-13.4 8.4 -14.2 8.8 -15.1 9.1 C-19.9 11.2 -24.8 13 -29.9 14.3 C-32.2 15.1 -34.3 16.1 -36.4 17.2 C-40 19 -40 19 -43 18 C-43 17 -43 16 -43 15 C-42.2 14.7 -41.4 14.4 -40.6 14.1 C-37.6 12.9 -34.6 11.7 -31.6 10.6 C-30.4 10.1 -29.1 9.6 -27.8 9.1 C-20.5 6.2 -13.3 3.3 -6.3 -0.2 C-3.7 -1.1 -2.5 -0.9 0 0 Z" fill="#ffffff" fill-opacity="1.00" transform="translate(591,626)"/><path d="M0 0 C0 0.7 0 1.3 0 2 C-5.1 6.7 -10.8 8.4 -17.2 10.7 C-18.9 11.3 -18.9 11.3 -20.6 11.9 C-35.9 17.4 -35.9 17.4 -41.2 15 C-41.8 14.7 -42.4 14.3 -43 14 C-37.2 12 -31.4 10 -25.6 8 C-23.6 7.3 -21.6 6.7 -19.7 6 C-16.8 5 -14 4 -11.2 3.1 C-10.3 2.8 -9.4 2.5 -8.5 2.1 C-7.7 1.9 -6.8 1.6 -6 1.3 C-5.3 1 -4.5 0.8 -3.8 0.5 C-2 0 -2 0 0 0 Z" fill="#ffffff" fill-opacity="1.00" transform="translate(545,643)"/><path d="M0 0 C-2.3 2.6 -4.3 3.7 -7.5 4.9 C-8.4 5.2 -9.3 5.5 -10.2 5.9 C-11.2 6.2 -12.1 6.5 -13.1 6.9 C-19.6 9.2 -25.8 11.8 -32 15.1 C-34 16 -34 16 -36 16 C-36 15.3 -36 14.7 -36 14 C-37.1 14.5 -38.1 15 -39.2 15.6 C-42.3 17 -43.8 16.9 -47 16 C-35.2 10.7 -23.4 5.5 -11.1 1.2 C-10.5 1 -9.8 0.7 -9.2 0.5 C-5.8 -0.7 -3.4 -1.4 0 0 Z" fill="#ffffff" fill-opacity="1.00" transform="translate(465,527)"/><path d="M0 0 C1.2 -0 1.2 -0 2.4 -0 C4.7 -0 7 -0 9.2 0 C9.9 0 10.6 0 11.3 0 C16.1 0.1 16.1 0.1 18.4 2.3 C17.4 2.3 16.4 2.4 15.4 2.4 C11.7 2.5 8 2.5 4.3 2.6 C2.7 2.7 1.1 2.7 -0.5 2.7 C-14.5 3 -28.1 4.3 -41.9 6.9 C-42.9 7.1 -42.9 7.1 -44 7.3 C-47.2 7.8 -50.5 8.4 -53.6 9.3 C-53.6 8.3 -53.6 7.3 -53.6 6.3 C-49.4 5.4 -45.1 4.6 -40.9 3.8 C-39.4 3.5 -38 3.2 -36.5 2.9 C-24.4 0.4 -12.4 0 0 0 Z" fill="#ffffff" fill-opacity="1.00" transform="translate(627.6,215.7)"/><path d="M0 0 C-3.6 2 -7.1 3.9 -10.7 5.9 C-11.7 6.4 -12.7 7 -13.7 7.6 C-14.7 8.1 -15.7 8.6 -16.7 9.2 C-17.6 9.7 -18.5 10.2 -19.4 10.7 C-21.9 11.9 -24.4 13 -27 14 C-26.7 12.3 -26.3 10.7 -26 9 C-26.6 9.2 -27.1 9.4 -27.8 9.6 C-30.5 10.1 -31.6 9.3 -34 8 C-33.4 7.8 -32.8 7.7 -32.1 7.5 C-29.3 6.7 -26.4 6 -23.6 5.2 C-22.6 4.9 -21.6 4.7 -20.6 4.4 C-15.3 3 -10 1.4 -4.9 -0.6 C-3 -1 -3 -1 0 0 Z" fill="#ffffff" fill-opacity="1.00" transform="translate(513,511)"/><path d="M0 0 C0.7 0 1.3 0 2 0 C1.9 1.7 1.8 3.3 1.6 5 C1.6 5.9 1.5 6.9 1.4 7.8 C1 11 1 11 -0 14.7 C-1.1 19 -1.2 23 -1.1 27.4 C-1 29 -1 30.6 -1 32.2 C-0.9 34.7 -0.9 37.1 -0.8 39.6 C-0.8 42 -0.7 44.4 -0.7 46.8 C-0.6 47.9 -0.6 47.9 -0.6 49 C-0.6 54.2 -1.7 57 -5 61 C-6 61.5 -6 61.5 -7 62 C-6 58.7 -5 55.4 -4 52 C-3.3 52 -2.7 52 -2 52 C-2 50 -2 48 -2 46 C-2.7 46 -3.3 46 -4 46 C-5.6 29.8 -4.3 15.7 0 0 Z" fill="#ffffff" fill-opacity="1.00" transform="translate(334,513)"/><path d="M0 0 C21.8 1.2 43.3 12.5 62 23 C62 23.7 62 24.3 62 25 C57 23.1 52.2 20.8 47.4 18.5 C46.5 18.1 45.7 17.7 44.8 17.3 C44 16.9 43.1 16.5 42.3 16.1 C41.5 15.7 40.8 15.4 40 15 C38 14 38 14 35 12 C33.5 11.5 32 11 30.4 10.6 C26.9 9.6 23.6 8.5 20.3 7.1 C13.8 4.3 6.9 2.7 0 1 C0 0.7 0 0.3 0 0 Z" fill="#ffffff" fill-opacity="1.00" transform="translate(676,222)"/><path d="M0 0 C0.7 0.3 1.3 0.7 2 1 C0.6 4.8 -1.2 8.1 -3.4 11.5 C-5.2 14.2 -7 16.9 -8.6 19.7 C-10 22 -10 22 -12.1 24.4 C-14.2 27.2 -15.1 29.7 -16 33 C-15.3 33 -14.7 33 -14 33 C-13.3 35 -12.7 37 -12 39 C-15.3 37.6 -17.2 36.2 -19 33 C-18.5 29.8 -17.2 27.3 -15.5 24.6 C-15 23.7 -14.5 22.9 -13.9 22 C-13.4 21.1 -12.9 20.2 -12.3 19.3 C-11.8 18.4 -11.3 17.6 -10.7 16.7 C-7.3 11 -3.7 5.5 0 0 Z" fill="#ffffff" fill-opacity="1.00" transform="translate(914,435)"/><path d="M0 0 C0.7 1.3 1.3 2.6 2 4 C2.7 4 3.3 4 4 4 C2.9 7.2 1.4 9.8 -0.5 12.6 C-3.6 17.4 -4.3 22.4 -5 28 C-6 28 -7 28 -8 28 C-8 26.4 -8 24.7 -8 23 C-7.3 23 -6.7 23 -6 23 C-6.2 22.2 -6.4 21.4 -6.6 20.5 C-7.5 12.6 -4 6.6 0 0 Z" fill="#ffffff" fill-opacity="1.00" transform="translate(295,636)"/><path d="M0 0 C0.3 1.3 0.7 2.6 1 4 C1.7 4 2.3 4 3 4 C3 8.1 3.1 12.1 3.1 16.2 C3.1 17.6 3.1 19 3.1 20.4 C3.4 37.6 3.4 37.6 1 45 C0 45.5 0 45.5 -1 46 C-0.9 44.8 -0.9 43.5 -0.8 42.3 C-0 28.2 0.1 14.1 0 0 Z" fill="#ffffff" fill-opacity="1.00" transform="translate(980,516)"/><path d="M0 0 C0.9 3.4 1.1 6.5 1 10 C0.3 10 -0.3 10 -1 10 C-1 13.4 -1.1 16.8 -1.1 20.2 C-1.1 21.1 -1.1 22.1 -1.1 23.1 C-1.1 24.5 -1.1 24.5 -1.1 25.9 C-1.1 26.8 -1.1 27.6 -1.1 28.5 C-1 31.1 -0.7 33.5 0 36 C0.7 36.3 1.3 36.7 2 37 C1.7 39 1.3 41 1 43 C-4.3 37.7 -4.3 28.7 -4.4 21.6 C-4.4 13.9 -2.8 7.3 0 0 Z" fill="#ffffff" fill-opacity="1.00" transform="translate(288,649)"/><path d="M0 0 C0.7 0.3 1.3 0.7 2 1 C-0.5 2.9 -3 4.8 -5.5 6.7 C-6.2 7.2 -6.9 7.8 -7.6 8.3 C-12.3 11.8 -17 15 -22 18 C-22 17 -22 16 -22 15 C-23 15.3 -24 15.7 -25 16 C-25.7 15.3 -26.3 14.7 -27 14 C-26.3 13.7 -25.6 13.3 -24.8 12.9 C-21.6 11.3 -18.4 9.7 -15.2 8.1 C-14.1 7.6 -12.9 7 -11.8 6.4 C-10.7 5.9 -9.7 5.4 -8.5 4.8 C-7.5 4.3 -6.6 3.8 -5.5 3.3 C-2.9 2 -2.9 2 0 0 Z" fill="#ffffff" fill-opacity="1.00" transform="translate(885,344)"/><path d="M0 0 C1 0.3 2 0.7 3 1 C-6.4 10.6 -6.4 10.6 -11.2 14.6 C-14.7 17.6 -17.6 20.9 -20.6 24.5 C-21 25 -21.5 25.5 -22 26 C-22.7 26 -23.3 26 -24 26 C-23.4 22.1 -21.7 20.3 -18.9 17.6 C-18.1 16.7 -17.2 15.9 -16.4 15 C-15.5 14.2 -14.6 13.3 -13.7 12.4 C-12.8 11.6 -11.9 10.7 -11.1 9.8 C-2.9 1.8 -2.9 1.8 0 0 Z" fill="#ffffff" fill-opacity="1.00" transform="translate(481,270)"/><path d="M0 0 C-1.6 3.2 -4.8 3.6 -8 5 C-8.3 5.7 -8.7 6.3 -9 7 C-8.4 6.8 -7.8 6.6 -7.2 6.4 C-4.5 5.9 -3.4 6.6 -1 8 C-1 8.3 -1 8.7 -1 9 C-7.4 9.1 -13.6 9 -20 8 C-17.3 4.5 -13.4 3.3 -9.4 1.8 C-8.8 1.5 -8.1 1.2 -7.4 0.9 C-2.2 -1.1 -2.2 -1.1 0 0 Z" fill="#ffffff" fill-opacity="1.00" transform="translate(550,706)"/><path d="M0 0 C0.7 0 1.3 0 2 0 C2 2 2 4 2 6 C1.7 6.3 1.3 6.7 1 7 C0.9 9.5 0.9 11.9 0.9 14.4 C0.9 15.1 0.9 15.8 0.9 16.6 C0.9 18.2 0.9 19.8 0.9 21.3 C0.9 23.7 0.9 26.1 0.9 28.5 C0.9 30.1 0.9 31.6 0.9 33.1 C0.9 33.8 0.9 34.5 0.9 35.3 C0.9 39 1.1 42.4 2 46 C1.3 46 0.7 46 0 46 C-1.3 42.1 -1.1 38.4 -1.1 34.3 C-1.1 33.5 -1.1 32.6 -1.1 31.7 C-1.1 29.9 -1.1 28.1 -1.1 26.3 C-1.1 23.6 -1.1 20.8 -1.1 18.1 C-1.1 16.3 -1.1 14.6 -1.1 12.8 C-1.1 12 -1.1 11.2 -1.1 10.3 C-1.1 6.7 -1 3.5 0 0 Z" fill="#ffffff" fill-opacity="1.00" transform="translate(273,512)"/><path d="M0 0 C-0.8 0.5 -1.7 0.9 -2.5 1.4 C-3.6 2 -4.7 2.7 -5.8 3.3 C-6.9 3.9 -8 4.5 -9.1 5.2 C-11.5 6.7 -13.1 8 -15 10 C-16.3 10.6 -16.3 10.6 -17.6 11.2 C-21.5 13.2 -24.6 15.7 -27.9 18.5 C-30 20 -30 20 -33 21 C-31.6 17.8 -30.3 16.2 -27.4 14.2 C-26.7 13.7 -26 13.2 -25.3 12.7 C-24.5 12.2 -23.8 11.7 -23 11.1 C-22.2 10.6 -21.5 10.1 -20.7 9.5 C-18.5 8 -16.2 6.5 -14 5 C-12.9 4.3 -11.9 3.6 -10.8 2.9 C-4 -1.5 -4 -1.5 0 0 Z" fill="#ffffff" fill-opacity="1.00" transform="translate(519,247)"/><path d="M0 0 C0.7 0.3 1.3 0.7 2 1 C0.9 4.3 -0.2 6.3 -2.5 8.9 C-5 12.1 -5.8 14.2 -7 18 C-8.5 20.5 -10 22.9 -12 25 C-12.7 25 -13.3 25 -14 25 C-12.6 19.9 -10.3 15.8 -7.6 11.4 C-7 10.4 -7 10.4 -6.4 9.4 C-4.4 6.1 -2.4 3 0 0 Z" fill="#ffffff" fill-opacity="1.00" transform="translate(305,431)"/><path d="M0 0 C-2 1 -2 1 -4 2 C-4 2.7 -4 3.3 -4 4 C-14 7.7 -14 7.7 -19 7 C-20.7 5.5 -20.7 5.5 -22 4 C-20.9 3.7 -19.9 3.5 -18.8 3.2 C-17.4 2.8 -16.1 2.4 -14.7 2.1 C-13.7 1.8 -13.7 1.8 -12.6 1.5 C-3.2 -1 -3.2 -1 0 0 Z" fill="#ffffff" fill-opacity="1.00" transform="translate(502,659)"/><path d="M0 0 C0.7 0.3 1.3 0.7 2 1 C0.1 4.2 -1.7 7.4 -3.6 10.6 C-4.4 11.9 -4.4 11.9 -5.2 13.3 C-8.4 18.7 -11.8 23.4 -16 28 C-16 24.3 -15 23.1 -13 20 C-12.1 18.6 -12.1 18.6 -11.1 17.1 C-10.5 16.1 -9.8 15 -9.1 14 C-8.5 13 -7.8 12 -7.2 10.9 C-4.8 7.3 -2.4 3.6 0 0 Z" fill="#ffffff" fill-opacity="1.00" transform="translate(796,572)"/><path d="M0 0 C0.7 0.7 1.3 1.3 2 2 C0.2 4 -1.6 5.9 -3.4 7.9 C-3.9 8.4 -4.4 9 -4.9 9.6 C-6.9 11.7 -8.9 13.9 -11 16 C-12 15.7 -13 15.3 -14 15 C-4.6 4.4 -4.6 4.4 0 0 Z" fill="#ffffff" fill-opacity="1.00" transform="translate(328,404)"/><path d="M0 0 C0 0.7 0 1.3 0 2 C-1.3 3.2 -1.3 3.2 -3.1 4.6 C-6.7 7.6 -9.5 10.8 -12.4 14.5 C-14 16 -14 16 -17 16 C-5.8 0 -5.8 0 0 0 Z" fill="#ffffff" fill-opacity="0.45" transform="translate(513,329)"/><path d="M0 0 C0 0.3 0 0.7 0 1 C-8.9 1 -17.8 1 -27 1 C-27 0.3 -27 -0.3 -27 -1 C-8.7 -2.6 -8.7 -2.6 0 0 Z" fill="#ffffff" fill-opacity="1.00" transform="translate(578,715)"/><path d="M0 0 C-2.6 3.9 -4.6 3.8 -9 5 C-9.3 5.7 -9.7 6.3 -10 7 C-13.3 6.7 -16.6 6.3 -20 6 C-16.6 3.8 -13.2 2.6 -9.4 1.3 C-8.4 1 -8.4 1 -7.4 0.6 C-2.2 -1.1 -2.2 -1.1 0 0 Z" fill="#ffffff" fill-opacity="1.00" transform="translate(522,652)"/><path d="M0 0 C0.3 0 0.7 0 1 0 C1.2 4.2 1.5 8.3 1.6 12.5 C1.7 13.9 1.8 15.3 1.9 16.7 C2 18.8 2.1 20.8 2.2 22.9 C2.2 24.1 2.3 25.3 2.4 26.6 C1.9 30.7 0.6 32.8 -2 36 C-3 36.5 -3 36.5 -4 37 C-3 33.7 -2 30.4 -1 27 C-0.3 27 0.3 27 1 27 C0.8 26.2 0.7 25.5 0.5 24.7 C-0.2 19.8 -0.1 15 -0.1 10.1 C-0.1 9.2 -0.1 8.2 -0.1 7.2 C-0 4.8 -0 2.4 0 0 Z" fill="#ffffff" fill-opacity="1.00" transform="translate(331,538)"/><path d="M0 0 C4.3 0.9 7.4 3.2 10.9 5.8 C11.5 6.2 12.1 6.6 12.7 7 C16.6 9.9 20.3 12.9 24 16 C23 16.3 22 16.7 21 17 C18.6 15.4 18.6 15.4 15.9 13 C11.4 9.1 6.8 5.6 1.8 2.3 C1.2 1.9 0.6 1.4 0 1 C0 0.7 0 0.3 0 0 Z" fill="#ffffff" fill-opacity="1.00" transform="translate(743,250)"/><path d="M0 0 C0 0.3 0 0.7 0 1 C-1.1 1.1 -1.1 1.1 -2.3 1.3 C-5 1.8 -5 1.8 -6.4 3.6 C-8 5 -8 5 -11.1 5.2 C-14 5 -14 5 -15 4 C-17.3 3.6 -19.7 3.3 -22 3 C-22 2.7 -22 2.3 -22 2 C-7.4 -0.3 -7.4 -0.3 0 0 Z" fill="#ffffff" fill-opacity="1.00" transform="translate(442,673)"/><path d="M0 0 C0 1 0 2 0 3 C-2.3 5.2 -2.3 5.2 -5.3 7.5 C-9.8 11 -9.8 11 -14 15 C-15 14.7 -16 14.3 -17 14 C-13.5 10.3 -9.8 7.2 -5.7 4.2 C-5.1 3.8 -4.6 3.4 -4 3 C-2.7 2 -1.3 1 0 0 Z" fill="#ffffff" fill-opacity="1.00" transform="translate(350,386)"/><path d="M0 0 C0.7 0.3 1.3 0.7 2 1 C0.6 2.5 0.6 2.5 -1 4 C-1.7 4 -2.3 4 -3 4 C-3.2 4.6 -3.4 5.1 -3.6 5.7 C-5.4 8.6 -7.5 10 -10.3 11.8 C-12.2 13 -12.2 13 -14 15 C-14 11 -14 11 -12.7 9.5 C-12.1 9.1 -11.5 8.7 -10.9 8.2 C-10.3 7.7 -9.7 7.2 -9 6.7 C-8 6 -8 6 -7 5.2 C-6.3 4.7 -5.7 4.2 -5 3.7 C-3.3 2.5 -1.7 1.2 0 0 Z" fill="#ffffff" fill-opacity="1.00" transform="translate(481,454)"/><path d="M0 0 C-2.4 2.7 -4.7 3.9 -8 5.2 C-9.3 5.8 -9.3 5.8 -10.6 6.3 C-13 7 -13 7 -16 6 C-11.8 1.2 -6.6 -2.6 0 0 Z" fill="#ffffff" fill-opacity="1.00" transform="translate(465,527)"/><path d="M0 0 C0 0.7 0 1.3 0 2 C-3.4 5.3 -6.2 6.9 -11 7 C-12.7 5.5 -12.7 5.5 -14 4 C-12 3.3 -10.1 2.7 -8.1 2 C-7 1.6 -5.9 1.3 -4.8 0.9 C-2 0 -2 0 0 0 Z" fill="#ffffff" fill-opacity="1.00" transform="translate(545,643)"/><path d="M0 0 C0.3 0 0.7 0 1 0 C1.2 3.3 1.4 6.6 1.6 9.9 C1.6 10.9 1.7 11.8 1.7 12.7 C2 18.6 1.8 24.1 1 30 C0 30.3 -1 30.7 -2 31 C-1.9 29.9 -1.7 28.9 -1.5 27.8 C-0.8 22.2 -0.7 16.6 -0.4 11 C-0.4 9.9 -0.3 8.9 -0.3 7.8 C-0.2 5.2 -0.1 2.6 0 0 Z" fill="#ffffff" fill-opacity="1.00" transform="translate(919,530)"/><path d="M0 0 C4.9 0.4 6.8 2.5 10 6 C11.1 7.1 11.1 7.1 12.3 8.3 C12.9 8.9 13.4 9.4 14 10 C13.7 11 13.3 12 13 13 C8.7 8.7 4.3 4.3 0 0 Z" fill="#ffffff" fill-opacity="1.00" transform="translate(728,321)"/><path d="M0 0 C-4 2 -7.9 4 -12 6 C-12 5.3 -12 4.7 -12 4 C-13.3 4 -14.6 4 -16 4 C-16.3 4.7 -16.7 5.3 -17 6 C-17.7 5.3 -18.3 4.7 -19 4 C-16.4 3.1 -13.8 2.3 -11.2 1.4 C-10.4 1.2 -9.7 0.9 -8.9 0.7 C-3.3 -1.1 -3.3 -1.1 0 0 Z" fill="#ffffff" fill-opacity="1.00" transform="translate(513,511)"/><path d="M0 0 C0 0.7 0 1.3 0 2 C-1.8 3.3 -1.8 3.3 -4 4.6 C-4.7 5.1 -5.5 5.5 -6.2 6 C-6.8 6.3 -7.4 6.7 -8 7 C-8 6 -8 5 -8 4 C-9 4.3 -10 4.7 -11 5 C-11.7 4.3 -12.3 3.7 -13 3 C-8.4 0.3 -5.3 -0.3 0 0 Z" fill="#ffffff" fill-opacity="1.00" transform="translate(871,355)"/><path d="M0 0 C0.7 1.3 1.3 2.6 2 4 C1.1 5.2 1.1 5.2 0.2 6.5 C-2.2 10.2 -4.1 14 -6 18 C-6.7 18 -7.3 18 -8 18 C-6.7 13.6 -5 9.7 -2.9 5.6 C-2.3 4.6 -1.8 3.5 -1.2 2.4 C-0.8 1.6 -0.4 0.8 0 0 Z" fill="#ffffff" fill-opacity="1.00" transform="translate(425,338)"/><path d="M0 0 C-0.5 1.8 -0.5 1.8 -2 4 C-5.6 5.9 -8.9 7 -13 7 C-13 6.3 -13 5.7 -13 5 C-12.3 5 -11.7 5 -11 5 C-11 4.3 -11 3.7 -11 3 C-9.5 2.5 -8.1 2 -6.6 1.5 C-5.8 1.2 -5 0.9 -4.2 0.7 C-2 0 -2 0 0 0 Z" fill="#ffffff" fill-opacity="1.00" transform="translate(429,541)"/><path d="M0 0 C0.5 0.5 0.9 0.9 1.4 1.4 C2.9 3.1 2.9 3.1 5 4 C5 5 5 6 5 7 C6.4 8.7 6.4 8.7 8 10 C7.7 11 7.3 12 7 13 C5.8 11.8 4.7 10.5 3.6 9.2 C2.9 8.6 2.3 7.9 1.6 7.1 C0 5 -0.7 3.6 -1 1 C-0.7 0.7 -0.3 0.3 0 0 Z" fill="#ffffff" fill-opacity="1.00" transform="translate(290,691)"/><path d="M0 0 C0 0.7 0 1.3 0 2 C-4.3 3.1 -7.6 4 -12 4 C-12 3 -12 2 -12 1 C-10.6 0.6 -9.1 0.3 -7.7 -0.1 C-6.9 -0.3 -6.1 -0.5 -5.3 -0.7 C-3 -1 -3 -1 0 0 Z" fill="#ffffff" fill-opacity="1.00" transform="translate(473,668)"/><path d="M0 0 C0.7 0 1.3 0 2 0 C0.6 5.6 -2.2 9.7 -6 14 C-7 14.5 -7 14.5 -8 15 C-6.6 11.3 -5 8.1 -3 4.7 C-2.5 3.8 -2 2.9 -1.4 2 C-1 1.4 -0.5 0.7 0 0 Z" fill="#ffffff" fill-opacity="1.00" transform="translate(434,323)"/><path d="M0 0 C0 0.7 0 1.3 0 2 C-3.5 5.3 -8.4 7.6 -13 9 C-15.1 8.5 -15.1 8.5 -17 8 C-14.5 6.7 -12.1 5.3 -9.6 4 C-8.9 3.6 -8.2 3.2 -7.5 2.8 C-2.2 0 -2.2 0 0 0 Z" fill="#ffffff" fill-opacity="1.00" transform="translate(407,549)"/><path d="M0 0 C0.7 0.7 1.3 1.3 2 2 C1.6 5.9 -0.3 9.5 -2 13 C-3 13.3 -4 13.7 -5 14 C-3.5 9.3 -1.9 4.6 0 0 Z" fill="#ffffff" fill-opacity="1.00" transform="translate(288,460)"/><path d="M0 0 C-0.3 1 -0.7 2 -1 3 C-3.1 4 -3.1 4 -5.6 4.7 C-6.4 4.9 -7.2 5.2 -8.1 5.5 C-8.7 5.6 -9.3 5.8 -10 6 C-7.8 -0 -6.3 -0.1 0 0 Z" fill="#ffffff" fill-opacity="1.00" transform="translate(577,632)"/><path d="M0 0 C0.3 0 0.7 0 1 0 C1.6 5.2 0.3 7.7 -2.7 11.7 C-3.4 12.3 -3.4 12.3 -4 13 C-4.7 13 -5.3 13 -6 13 C-4.6 8.2 -2.6 4.3 0 0 Z" fill="#ffffff" fill-opacity="1.00" transform="translate(297,443)"/><path d="M0 0 C0 3 0 3 0 3 Z M-3 4 C-3 7 -3 7 -4.4 8.4 C-4.9 8.9 -5.5 9.5 -6 10 C-6.3 10.7 -6.6 11.4 -6.9 12.1 C-8.4 14.7 -10.2 15.1 -13 16 C-11.8 12.2 -9.8 10.7 -7 8 C-6.2 7.2 -5.5 6.5 -4.7 5.7 C-4.1 5.1 -3.6 4.6 -3 4 Z" fill="#ffffff" fill-opacity="1.00" transform="translate(592,651)"/><path d="M0 0 C-1 0 -2 0 -3 0 C-3 0.7 -3 1.3 -3 2 C-6.4 3.1 -9.1 3.1 -12.7 3.1 C-14.5 3 -14.5 3 -16.3 3 C-17.2 3 -18.1 3 -19 3 C-19 2.7 -19 2.3 -19 2 C-16.6 1.5 -14.2 0.9 -11.8 0.4 C-11.1 0.3 -10.4 0.1 -9.7 -0 C-6.2 -0.8 -3.4 -1.3 0 0 Z" fill="#ffffff" fill-opacity="1.00" transform="translate(464,669)"/><path d="M0 0 C0 0.7 0 1.3 0 2 C-1.7 2.6 -3.5 3.3 -5.2 3.9 C-6.2 4.3 -7.1 4.7 -8.1 5 C-10.7 5.9 -13.3 6.5 -16 7 C-13.6 4.3 -11.3 3.1 -8 1.8 C-6.7 1.3 -6.7 1.3 -5.4 0.8 C-3 0 -3 0 0 0 Z" fill="#ffffff" fill-opacity="1.00" transform="translate(554,229)"/><path d="M0 0 C5.9 2.5 5.9 2.5 12 5 C12 5.7 12 6.3 12 7 C7 6.5 3.9 5.1 0 2 C0 1.3 0 0.7 0 0 Z" fill="#ffffff" fill-opacity="1.00" transform="translate(366,668)"/><path d="M0 0 C-4.4 3 -6.7 3.1 -12 3 C-8.6 -2.1 -5.5 -0.9 0 0 Z" fill="#ffffff" fill-opacity="1.00" transform="translate(509,659)"/><path d="M0 0 C0.3 0 0.7 0 1 0 C1.3 2.2 1.3 2.2 1 5 C-1.5 7.8 -1.5 7.8 -4 10 C-5 9.7 -6 9.3 -7 9 C-5.9 7.5 -4.7 6 -3.6 4.5 C-2.9 3.7 -2.3 2.8 -1.6 2 C-0.8 1 -0.8 1 0 0 Z" fill="#ffffff" fill-opacity="1.00" transform="translate(306,621)"/><path d="M0 0 C0.3 0 0.7 0 1 0 C1.2 4.9 1.2 8.5 -1 13 C-1.7 13 -2.3 13 -3 13 C-2.5 8.3 -2 4.3 0 0 Z" fill="#ffffff" fill-opacity="1.00" transform="translate(282,475)"/><path d="M0 0 C-1.9 1 -3.8 2 -5.8 3.1 C-6.8 3.6 -7.9 4.2 -9 4.8 C-12 6 -13.1 6.2 -16 5 C-14.1 4 -12.2 3 -10.2 1.9 C-8.7 1.1 -8.7 1.1 -7 0.2 C-4 -1 -3 -1.2 0 0 Z" fill="#ffffff" fill-opacity="1.00" transform="translate(536,238)"/><path d="M0 0 C0.7 0.3 1.3 0.7 2 1 C-1.2 4.7 -4.4 6.4 -9 8 C-11.2 7.6 -11.2 7.6 -13 7 C-10.9 5.8 -8.8 4.6 -6.6 3.4 C-6 3.1 -5.4 2.8 -4.8 2.4 C-3.2 1.5 -1.6 0.8 0 0 Z" fill="#ffffff" fill-opacity="1.00" transform="translate(587,686)"/><path d="M0 0 C0.7 0 1.3 0 2 0 C2.2 1.2 2.2 1.2 2.4 2.4 C2.6 3.3 2.8 4.1 3 5 C3.7 5.3 4.3 5.7 5 6 C4.7 8 4.3 10 4 12 C1.5 9.5 0.9 7.4 0 4 C0 2.7 0 1.4 0 0 Z" fill="#ffffff" fill-opacity="1.00" transform="translate(285,680)"/><path d="M0 0 C0.7 0.7 1.3 1.3 2 2 C-1.3 2.7 -4.6 3.3 -8 4 C-8.3 3 -8.7 2 -9 1 C-5.7 -1.1 -3.8 -1.2 0 0 Z" fill="#ffffff" fill-opacity="1.00" transform="translate(483,665)"/><path d="M0 0 C0.7 0.3 1.3 0.7 2 1 C1.4 3.4 1.4 3.4 0 6 C-3.1 7.3 -3.1 7.3 -6 8 C-4.6 4.6 -2.7 2.5 0 0 Z" fill="#ffffff" fill-opacity="1.00" transform="translate(578,662)"/><path d="M0 0 C0 0.7 0 1.3 0 2 C-2.6 3.6 -3.7 4 -6.8 3.6 C-7.5 3.4 -8.2 3.2 -9 3 C-9.3 3.7 -9.7 4.3 -10 5 C-10.7 4.3 -11.3 3.7 -12 3 C-10.4 2.3 -8.8 1.6 -7.1 0.9 C-6.2 0.6 -5.3 0.2 -4.4 -0.2 C-2 -1 -2 -1 0 0 Z" fill="#ffffff" fill-opacity="1.00" transform="translate(453,530)"/><path d="M0 0 C2.1 3.4 2.1 3.4 1.8 6 C1.6 6.6 1.4 7.3 1.2 7.9 C1 8.6 0.8 9.3 0.6 10 C0.4 10.7 0.2 11.3 0 12 C-0.3 13.7 -0.7 15.3 -1 17 C-1.3 17 -1.7 17 -2 17 C-2.2 11 -1.5 5.8 0 0 Z" fill="#ffffff" fill-opacity="1.00" transform="translate(276,494)"/><path d="M0 0 C4.8 1.6 8.8 4.3 13 7 C11.3 7.7 11.3 7.7 9 8 C6.6 6.9 6.6 6.9 4.2 5.2 C3.5 4.6 2.6 4.1 1.8 3.5 C1.2 3 0.6 2.5 0 2 C0 1.3 0 0.7 0 0 Z" fill="#ffffff" fill-opacity="0.53" transform="translate(684,551)"/><path d="M0 0 C0 1 0 2 0 3 C-5 5.5 -5 5.5 -10 8 C-10.7 7.3 -11.3 6.7 -12 6 C-8 4 -4.1 2 0 0 Z" fill="#ffffff" fill-opacity="1.00" transform="translate(805,386)"/><path d="M0 0 C-1 3 -1 3 -3.1 4.2 C-3.9 4.5 -4.7 4.8 -5.6 5.2 C-6.4 5.5 -7.2 5.9 -8.1 6.2 C-9 6.6 -9 6.6 -10 7 C-10.7 6.3 -11.3 5.7 -12 5 C-10.4 4.2 -8.8 3.3 -7.1 2.5 C-6.2 2 -5.3 1.6 -4.4 1.1 C-2 0 -2 0 0 0 Z" fill="#ffffff" fill-opacity="1.00" transform="translate(822,378)"/><path d="M0 0 C2 0 4 0 6 0 C3 1.5 -0 2.9 -3.1 4.2 C-4 4.5 -4.9 4.9 -5.8 5.3 C-8 6 -8 6 -10 5 C-9.7 4.3 -9.3 3.7 -9 3 C-6.9 2.6 -6.9 2.6 -4.4 2.4 C-3.6 2.3 -2.8 2.2 -1.9 2.1 C-1 2.1 -1 2.1 0 2 C0 1.3 0 0.7 0 0 Z" fill="#ffffff" fill-opacity="0.53" transform="translate(774,347)"/><path d="M0 0 C-7.5 5 -7.5 5 -11 5 C-10.2 2.6 -10.2 2.6 -9 0 C-5.9 -1.5 -3.3 -0.8 0 0 Z" fill="#ffffff" fill-opacity="1.00" transform="translate(449,534)"/><path d="M0 0 C-7.3 4.4 -7.3 4.4 -12 5 C-11.7 4 -11.3 3 -11 2 C-9 1 -9 1 -6.6 0.2 C-5.8 -0 -5 -0.3 -4.1 -0.6 C-2 -1 -2 -1 0 0 Z" fill="#ffffff" fill-opacity="1.00" transform="translate(820,335)"/><path d="M0 0 C-1 2 -1 2 -3.1 2.9 C-4.3 3.2 -4.3 3.2 -5.6 3.6 C-6.4 3.9 -7.2 4.2 -8.1 4.4 C-8.7 4.6 -9.3 4.8 -10 5 C-10.7 4.3 -11.3 3.7 -12 3 C-10.4 2.3 -8.8 1.6 -7.1 0.9 C-6.2 0.6 -5.3 0.2 -4.4 -0.2 C-2 -1 -2 -1 0 0 Z" fill="#ffffff" fill-opacity="0.93" transform="translate(550,706)"/><path d="M0 0 C1.3 0.3 2.6 0.7 4 1 C2.4 2 0.8 3 -0.8 4.1 C-2.1 4.9 -2.1 4.9 -3.5 5.8 C-6 7 -6 7 -9 6 C-4.5 2 -4.5 2 0 2 C0 1.3 0 0.7 0 0 Z" fill="#ffffff" fill-opacity="1.00" transform="translate(439,550)"/><path d="M0 0 C-2 3 -2 3 -4 3.5 C-4.7 3.6 -5.4 3.6 -6.1 3.7 C-8 3.8 -8 3.8 -10 4 C-10.3 3.3 -10.7 2.7 -11 2 C-9.5 1.5 -8.1 0.9 -6.6 0.4 C-5.8 0.1 -5 -0.1 -4.2 -0.4 C-2 -1 -2 -1 0 0 Z M-12 4 C-10 5 -10 5 -10 5 Z" fill="#ffffff" fill-opacity="1.00" transform="translate(791,345)"/><path d="M0 0 C2 0 4.1 0.1 6.2 0.1 C2.1 2.8 -0.8 3.2 -5.6 3.2 C-6.4 3.1 -7.2 3.1 -8 3.1 C-8.6 3.1 -9.2 3.1 -9.8 3.1 C-9.8 2.8 -9.8 2.4 -9.8 2.1 C-8.7 1.9 -7.6 1.8 -6.4 1.7 C-3.5 1.2 -2.5 0.1 0 0 Z" fill="#ffffff" fill-opacity="1.00" transform="translate(444.8,671.9)"/><path d="M0 0 C1 3.4 1.1 6.5 1 10 C0 10 -1 10 -2 10 C-2.3 11 -2.7 12 -3 13 C-2.5 8.4 -1.6 4.3 0 0 Z" fill="#ffffff" fill-opacity="1.00" transform="translate(288,649)"/><path d="M0 0 C-4.6 3.5 -8.5 3.3 -14 3 C-14 2.7 -14 2.3 -14 2 C-12 1.5 -10.1 0.9 -8.1 0.4 C-7 0.1 -5.9 -0.1 -4.8 -0.4 C-2 -1 -2 -1 0 0 Z" fill="#ffffff" fill-opacity="1.00" transform="translate(838,647)"/><path d="M0 0 C0 0.7 0 1.3 0 2 C-3 2.9 -3.9 3 -7 2 C-8.3 1.7 -9.7 1.3 -11 1 C-3.6 -1.4 -3.6 -1.4 0 0 Z" fill="#ffffff" fill-opacity="1.00" transform="translate(477,666)"/><path d="M0 0 C-1 1.5 -1 1.5 -2 3 C-4.2 3.3 -4.2 3.3 -6.6 3.2 C-7.4 3.2 -8.3 3.1 -9.1 3.1 C-10 3 -10 3 -11 3 C-3.7 -1.9 -3.7 -1.9 0 0 Z" fill="#ffffff" fill-opacity="1.00" transform="translate(522,652)"/><path d="M0 0 C0 0.7 0 1.3 0 2 C-2.7 3.3 -5.3 4.7 -8 6 C-10.1 5.1 -10.1 5.1 -12 4 C-10.4 3.3 -8.8 2.7 -7.1 2 C-6.2 1.6 -5.3 1.3 -4.4 0.9 C-2 0 -2 0 0 0 Z" fill="#ffffff" fill-opacity="1.00" transform="translate(585,627)"/><path d="M0 0 C0.3 1 0.7 2 1 3 C-0.7 4.7 -2.3 6.3 -4 8 C-5 7.7 -6 7.3 -7 7 C-4.7 4.7 -2.4 2.4 0 0 Z" fill="#ffffff" fill-opacity="0.45" transform="translate(386,592)"/><path d="M0 0 C0.7 0.7 1.3 1.3 2 2 C0.9 2.8 -0.2 3.7 -1.4 4.5 C-2.3 5.2 -2.3 5.2 -3.3 5.9 C-5 7 -5 7 -7 7 C-5.7 3 -3.5 2.2 0 0 Z" fill="#ffffff" fill-opacity="0.45" transform="translate(423,563)"/><path d="M0 0 C-0.3 1 -0.7 2 -1 3 C-4.3 3 -7.6 3 -11 3 C-7 0.3 -4.8 0 0 0 Z" fill="#ffffff" fill-opacity="1.00" transform="translate(501,515)"/><path d="M0 0 C0.3 0.7 0.7 1.3 1 2 C0.1 4 -0.9 6 -2 8 C-3 8 -4 8 -5 8 C-3.8 4.6 -2.7 2.4 0 0 Z" fill="#ffffff" fill-opacity="0.45" transform="translate(975,290)"/><path d="M0 0 C3.1 0.6 5.2 1.6 7.8 3.6 C8.7 4.2 8.7 4.2 9.6 4.9 C10.3 5.5 10.3 5.5 11 6 C10 6.3 9 6.7 8 7 C6 5.8 6 5.8 3.8 4.1 C3.1 3.6 2.4 3 1.6 2.5 C1.1 2 0.6 1.5 0 1 C0 0.7 0 0.3 0 0 Z" fill="#ffffff" fill-opacity="1.00" transform="translate(743,250)"/><path d="M0 0 C0.7 0.7 1.3 1.3 2 2 C-3.1 5.2 -3.1 5.2 -5 6 C-6.3 5.7 -7.6 5.3 -9 5 C-6 3.4 -3.1 1.7 0 0 Z" fill="#ffffff" fill-opacity="1.00" transform="translate(375,566)"/><path d="M0 0 C0 0.7 0 1.3 0 2 C-2.3 3.3 -4.6 4.6 -7 6 C-7.7 5.3 -8.3 4.7 -9 4 C-2.2 0 -2.2 0 0 0 Z" fill="#ffffff" fill-opacity="1.00" transform="translate(594,498)"/><path d="M0 0 C2 1.6 2 1.6 4 4 C4.2 7.8 4.2 7.8 4 11 C1.7 8.7 1.5 7.5 0.9 4.4 C0.7 3.6 0.5 2.7 0.4 1.9 C0.2 1.3 0.1 0.7 0 0 Z" fill="#ffffff" fill-opacity="1.00" transform="translate(971,477)"/><path d="M0 0 C0.7 0.3 1.3 0.7 2 1 C0.7 2.2 -0.6 3.3 -1.9 4.5 C-2.6 5.2 -3.3 5.8 -4 6.5 C-6 8 -6 8 -8 8 C-6.5 3.8 -3.7 2.3 0 0 Z" fill="#ffffff" fill-opacity="1.00" transform="translate(886,345)"/><path d="M0 0 C-5.6 4 -5.6 4 -9 4 C-8 1 -8 1 -6.2 -0.2 C-3.7 -1.1 -2.5 -0.9 0 0 Z" fill="#ffffff" fill-opacity="0.45" transform="translate(488,527)"/><path d="M0 0 C0.7 0.3 1.3 0.7 2 1 C0 3.3 -2 5.6 -4 8 C-4.7 7.7 -5.3 7.3 -6 7 C-2.2 1.1 -2.2 1.1 0 0 Z" fill="#ffffff" fill-opacity="1.00" transform="translate(817,397)"/><path d="M0 0 C-5 2.5 -5 2.5 -10 5 C-9 2 -9 2 -6.7 0.2 C-4 -1 -4 -1 0 0 Z" fill="#ffffff" fill-opacity="0.45" transform="translate(369,375)"/><path d="M0 0 C0 1 0 2 0 3 C-2.9 3.6 -2.9 3.6 -6 4 C-6.7 3.3 -7.3 2.7 -8 2 C-2.2 0 -2.2 0 0 0 Z M-8 4 C-6 5 -6 5 -6 5 Z" fill="#ffffff" fill-opacity="0.45" transform="translate(769,329)"/><path d="M0 0 C0.7 0.3 1.3 0.7 2 1 C-2.3 4.9 -2.3 4.9 -5.8 5.2 C-6.5 5.2 -7.3 5.1 -8 5 C-5.5 3 -3 1.2 0 0 Z" fill="#ffffff" fill-opacity="0.45" transform="translate(570,671)"/><path d="M0 0 C0.7 0.3 1.3 0.7 2 1 C0.7 1.8 -0.6 2.7 -1.9 3.5 C-2.6 4 -3.3 4.4 -4 4.9 C-6 6 -6 6 -8 6 C-7 3 -7 3 -3.6 1.2 C-2.4 0.8 -1.2 0.4 0 0 Z" fill="#ffffff" fill-opacity="1.00" transform="translate(851,322)"/><path d="M0 0 C3 1.4 5.4 3 8 5 C7.7 5.7 7.3 6.3 7 7 C5.8 6.2 4.7 5.4 3.5 4.6 C2.9 4.2 2.2 3.7 1.5 3.3 C1 2.9 0.5 2.4 0 2 C0 1.3 0 0.7 0 0 Z" fill="#ffffff" fill-opacity="1.00" transform="translate(299,704)"/><path d="M0 0 C0.9 0.3 0.9 0.3 1.8 0.7 C1.1 0.7 0.4 0.7 -0.2 0.7 C-0.6 1.7 -0.9 2.7 -1.2 3.7 C-2.9 3.4 -4.5 3 -6.2 2.7 C-2.8 -0.4 -2.8 -0.4 0 0 Z" fill="#ffffff" fill-opacity="1.00" transform="translate(644.2,655.3)"/><path d="M0 0 C0.3 0 0.7 0 1 0 C1.2 2.2 1.2 2.2 1 5 C-1 7.3 -1 7.3 -3 9 C-3.3 8.3 -3.7 7.7 -4 7 C-3.2 5.3 -3.2 5.3 -2.1 3.4 C-1.4 2.3 -0.7 1.1 0 0 Z" fill="#ffffff" fill-opacity="0.45" transform="translate(797,573)"/><path d="M0 0 C2 1 2 1 2.8 2.8 C3.1 5.5 2.4 6.7 1 9 C0.7 9 0.3 9 0 9 C0 6 0 3.1 0 0 Z" fill="#ffffff" fill-opacity="1.00" transform="translate(920,532)"/><path d="M0 0 C0 0.3 0 0.7 0 1 C-7.8 0.2 -7.8 0.2 -10 -2 C-5.9 -3.7 -3.6 -2.1 0 0 Z" fill="#ffffff" fill-opacity="1.00" transform="translate(490,474)"/><path d="M0 0 C0.7 0.3 1.3 0.7 2 1 C0.2 6.8 0.2 6.8 -2 9 C-2.2 3.4 -2.2 3.4 0 0 Z" fill="#ffffff" fill-opacity="1.00" transform="translate(470,380)"/><path d="M0 0 C-4.8 3 -4.8 3 -7 3 C-7 2 -7 1 -7 0 C-3.9 -1 -3 -0.9 0 0 Z" fill="#ffffff" fill-opacity="1.00" transform="translate(699,377)"/><path d="M0 0 C-0.3 1 -0.7 2 -1 3 C-3.6 4.2 -3.6 4.2 -6 5 C-6.7 4.3 -7.3 3.7 -8 3 C-2.2 0 -2.2 0 0 0 Z" fill="#ffffff" fill-opacity="1.00" transform="translate(849,364)"/><path d="M0 0 C-1.1 1.6 -1.1 1.6 -3 3 C-6.2 2.7 -6.2 2.7 -9 2 C-5.6 -0.3 -4 -0.2 0 0 Z M-7 3 C-5 4 -5 4 -5 4 Z" fill="#ffffff" fill-opacity="1.00" transform="translate(891,310)"/><path d="M0 0 C0.3 1 0.7 2 1 3 C-0.7 4.7 -2.3 6.3 -4 8 C-3.5 4.3 -2.9 2.4 0 0 Z" fill="#ffffff" fill-opacity="1.00" transform="translate(455,296)"/></svg>